#N canvas 200 22 558 720 10;
#X obj 218 849 delwrite~ b1 5000;
#X obj 56 669 vd~ b1;
#X obj 55 395 phasor~;
#X obj 56 521 *~ -1;
#X obj 56 549 +~ 1;
#X obj 165 616 sig~ 1;
#X obj 219 616 cos~;
#X obj 165 639 -~;
#X obj 165 660 *~ 0.5;
#X obj 56 713 *~;
#X obj 77 605 samphold~;
#X obj 56 629 *~;
#X obj 77 582 sig~;
#X obj 56 806 *~;
#X obj 425 670 vd~ b1;
#X obj 425 521 *~ -1;
#X obj 425 549 +~ 1;
#X obj 316 616 sig~ 1;
#X obj 370 616 cos~;
#X obj 316 639 -~;
#X obj 316 660 *~ 0.5;
#X obj 298 718 *~;
#X obj 446 606 samphold~;
#X obj 425 629 *~;
#X obj 446 583 sig~;
#X obj 425 477 +~ 0.5;
#X obj 425 499 wrap~;
#X obj 165 72 vsl 15 128 100 30000 0 0 empty empty empty 0 -8 0 8 -262144
-1 -1 0 1;
#X obj 55 37 vsl 15 73 -36 36 0 0 empty empty empty 0 -8 0 8 -262144
-1 -1 0 1;
#X text 72 101 -36;
#X text 78 29 36;
#X text 184 65 30000;
#X text 182 189 100;
#X obj 298 765 *~;
#X text 258 623 Hanning;
#X text 130 44 window width;
#X obj 92 337 /;
#X obj 55 162 / 12;
#X obj 55 253 - 1;
#X obj 55 137 t f f;
#X obj 92 314 44100;
#X obj 55 183 t b f;
#X obj 55 230 pow;
#X obj 55 207 2;
#X obj 55 363 *;
#X obj 55 281 t f b;
#X obj 101 281 t b b f;
#X obj 165 327 / 44.1;
#X text 4 5 Transposition (Half steps);
#X obj 56 847 outlet~;
#X obj 126 847 outlet~;
#X obj 218 786 inlet~;
#X obj 348 733 hsl 128 15 0 1 0 0 empty empty empty -2 -8 0 10 -262144
-1 -1 0 1;
#X text 362 751 Feedback;
#X obj 77 776 hsl 128 15 0 1 0 0 empty empty empty -2 -8 0 10 -262144
-1 -1 0 1;
#X text 77 757 Volume;
#X connect 1 0 9 0;
#X connect 2 0 3 0;
#X connect 2 0 6 0;
#X connect 2 0 10 1;
#X connect 2 0 25 0;
#X connect 3 0 4 0;
#X connect 4 0 11 0;
#X connect 5 0 7 0;
#X connect 6 0 7 1;
#X connect 7 0 8 0;
#X connect 8 0 9 1;
#X connect 9 0 13 0;
#X connect 9 0 33 0;
#X connect 10 0 11 1;
#X connect 11 0 1 0;
#X connect 12 0 10 0;
#X connect 13 0 49 0;
#X connect 13 0 50 0;
#X connect 14 0 21 0;
#X connect 15 0 16 0;
#X connect 16 0 23 0;
#X connect 17 0 19 0;
#X connect 18 0 19 1;
#X connect 19 0 20 0;
#X connect 20 0 21 1;
#X connect 21 0 13 0;
#X connect 21 0 33 0;
#X connect 22 0 23 1;
#X connect 23 0 14 0;
#X connect 24 0 22 0;
#X connect 25 0 26 0;
#X connect 26 0 15 0;
#X connect 26 0 22 1;
#X connect 26 0 18 0;
#X connect 27 0 47 0;
#X connect 27 0 46 0;
#X connect 28 0 39 0;
#X connect 33 0 0 0;
#X connect 36 0 44 1;
#X connect 37 0 41 0;
#X connect 38 0 45 0;
#X connect 39 0 37 0;
#X connect 40 0 36 0;
#X connect 41 0 43 0;
#X connect 41 1 42 1;
#X connect 42 0 38 0;
#X connect 43 0 42 0;
#X connect 44 0 2 0;
#X connect 45 0 44 0;
#X connect 45 1 40 0;
#X connect 46 0 44 0;
#X connect 46 1 40 0;
#X connect 46 2 36 1;
#X connect 47 0 5 0;
#X connect 47 0 17 0;
#X connect 51 0 0 0;
#X connect 52 0 33 1;
#X connect 54 0 13 1;
