#N canvas 379 141 311 286 10;
#X obj 84 128 f;
#X obj 49 128 +;
#X obj 49 157 outlet;
#X obj 49 33 inlet;
#X obj 49 54 t b;
#X obj 99 33 inlet;
#X obj 99 54 t b;
#X text 42 214 Copyright Ragnar Hrafnkelsson 2011;
#X obj 49 88 - \$1;
#X obj 89 88 \$1;
#X connect 0 0 1 1;
#X connect 1 0 0 0;
#X connect 1 0 2 0;
#X connect 3 0 4 0;
#X connect 4 0 8 0;
#X connect 5 0 6 0;
#X connect 6 0 9 0;
#X connect 8 0 1 0;
#X connect 9 0 1 0;
